<svg width="113" height="19" viewBox="0 0 113 19" fill="none" xmlns="http://www.w3.org/2000/svg">
<path d="M0.632 18V1.2H6.368C8.336 1.2 9.952 1.552 11.216 2.256C12.496 2.944 13.44 3.92 14.048 5.184C14.672 6.432 14.984 7.904 14.984 9.6C14.984 11.296 14.672 12.776 14.048 14.04C13.44 15.288 12.496 16.264 11.216 16.968C9.952 17.656 8.336 18 6.368 18H0.632ZM3.704 15.36H6.224C7.632 15.36 8.744 15.136 9.56 14.688C10.376 14.224 10.96 13.568 11.312 12.72C11.664 11.856 11.84 10.816 11.84 9.6C11.84 8.4 11.664 7.368 11.312 6.504C10.96 5.64 10.376 4.976 9.56 4.512C8.744 4.048 7.632 3.816 6.224 3.816H3.704V15.36ZM17.6945 18V1.2H28.6625V3.672H20.7665V8.28H27.9425V10.68H20.7665V15.528H28.6625V18H17.6945ZM31.5695 18V1.2H37.7375C39.0815 1.2 40.1855 1.432 41.0495 1.896C41.9295 2.344 42.5855 2.96 43.0175 3.744C43.4495 4.512 43.6655 5.368 43.6655 6.312C43.6655 7.336 43.3935 8.272 42.8495 9.12C42.3215 9.968 41.4895 10.584 40.3535 10.968L43.8335 18H40.3055L37.1855 11.376H34.6415V18H31.5695ZM34.6415 9.12H37.5455C38.5695 9.12 39.3215 8.872 39.8015 8.376C40.2815 7.88 40.5215 7.224 40.5215 6.408C40.5215 5.608 40.2815 4.968 39.8015 4.488C39.3375 4.008 38.5775 3.768 37.5215 3.768H34.6415V9.12ZM46.5226 18V1.2H50.1706L55.5226 11.856L60.8026 1.2H64.4506V18H61.3786V6.408L56.6986 15.6H54.2746L49.5946 6.408V18H46.5226ZM66.6301 18L72.7741 1.2H76.2301L82.3741 18H79.1101L77.7661 14.112H71.2141L69.8461 18H66.6301ZM72.0541 11.712H76.9261L74.4781 4.728L72.0541 11.712ZM86.669 18V3.672H81.773V1.2H94.661V3.672H89.741V18H86.669ZM104.199 18.288C102.519 18.288 101.047 17.92 99.7833 17.184C98.5353 16.448 97.5513 15.432 96.8313 14.136C96.1273 12.824 95.7753 11.312 95.7753 9.6C95.7753 7.888 96.1273 6.384 96.8313 5.088C97.5513 3.776 98.5353 2.752 99.7833 2.016C101.047 1.28 102.519 0.912 104.199 0.912C105.863 0.912 107.327 1.28 108.591 2.016C109.855 2.752 110.839 3.776 111.543 5.088C112.247 6.384 112.599 7.888 112.599 9.6C112.599 11.312 112.247 12.824 111.543 14.136C110.839 15.432 109.855 16.448 108.591 17.184C107.327 17.92 105.863 18.288 104.199 18.288ZM104.199 15.528C105.799 15.528 107.071 15 108.015 13.944C108.975 12.888 109.455 11.44 109.455 9.6C109.455 7.76 108.975 6.312 108.015 5.256C107.071 4.2 105.799 3.672 104.199 3.672C102.599 3.672 101.319 4.2 100.359 5.256C99.3993 6.312 98.9193 7.76 98.9193 9.6C98.9193 11.44 99.3993 12.888 100.359 13.944C101.319 15 102.599 15.528 104.199 15.528Z" fill="#644B2C"/>
</svg>
